<?xml version="1.0" standalone="no"?>
<!DOCTYPE svg PUBLIC "-//W3C//DTD SVG 20010904//EN"
 "http://www.w3.org/TR/2001/REC-SVG-20010904/DTD/svg10.dtd">
<svg version="1.0" xmlns="http://www.w3.org/2000/svg"
 width="512.000000pt" height="512.000000pt" viewBox="0 0 512.000000 512.000000"
 preserveAspectRatio="xMidYMid meet">
<metadata>
Created by potrace 1.14, written by Peter Selinger 2001-2017
</metadata>
<g transform="translate(0.000000,512.000000) scale(0.100000,-0.100000)"
fill="#000000" stroke="none">
<path d="M570 4314 c-107 -32 -185 -109 -220 -219 -10 -30 -13 -193 -13 -692
0 -592 2 -654 17 -678 9 -14 25 -25 35 -25 15 0 20 -9 22 -42 7 -83 0 -116
-26 -122 -14 -4 -30 -16 -36 -28 -9 -16 -12 -163 -12 -538 l0 -516 -104 1
c-121 1 -166 -13 -204 -66 -23 -33 -24 -41 -24 -199 0 -160 1 -167 27 -217 46
-87 115 -144 204 -167 69 -17 4599 -16 4660 2 90 26 176 112 207 205 12 37 16
83 14 195 -2 136 -4 149 -25 180 -39 54 -73 66 -195 66 -86 1 -108 4 -111 16
-3 8 -4 52 -4 98 0 87 -11 114 -53 127 -17 6 -19 17 -19 91 0 46 4 84 8 84 14
0 138 130 187 195 49 65 124 210 150 290 127 386 26 804 -263 1091 -86 85 -85
83 -83 196 1 48 4 58 21 63 45 14 52 45 52 207 0 131 -3 161 -21 209 -34 89
-111 161 -201 189 -61 19 -3927 23 -3990 4z"/>
</g>
</svg>
